<?xml version="1.0" encoding="utf-8" ?>
<svg xmlns="http://www.w3.org/2000/svg" xmlns:xlink="http://www.w3.org/1999/xlink" width="1760" height="1792">
	<path fill="#0060AC" d="M0 276.577L0 -0L1760 0L1760 536.688L1760 571.005L1760 1792L-0 1792L0 1559.78L-0 1541.98L0 1306.99L0 1289.09L0 1053.16L0 1036.11L0 800.269L0 783.216L0 547.079L0 529.608L0 293.663L0 276.577ZM127.981 84.052C126.563 95.9727 127.315 108.432 127.315 120.456L127.34 183.318C127.345 195.702 127.787 208.225 126.922 220.575L125.589 220.782C117.532 221.906 108.849 220.788 100.646 221.645C96.7274 222.055 92.9756 223.085 89.1015 223.689C59.9001 228.236 27.3985 235.144 8.54337 260.367C4.8205 265.347 3.50878 271.531 0 276.577L0 293.663L0 529.608L0 547.079L0 783.216L0 800.269L0 1036.11L0 1053.16L0 1289.09L0 1306.99L-0 1541.98L0 1559.78L2.36792 1561.46L2.51462 1562.68C3.44961 1569.03 6.71431 1573.38 10.4204 1578.45C12.6867 1581.55 16.002 1584.18 18.9025 1586.67C35.8839 1601.29 63.2504 1609.78 85.3307 1612.67L108.632 1615.2C114.482 1615.58 121.279 1615.32 126.951 1616.62L127.428 1622.96L127.352 1698.94L127.363 1725.51C127.373 1732.29 127.046 1739.28 129.063 1745.83C130.722 1753.17 132.637 1757.34 137.344 1763.36C138.52 1764.86 139.376 1766.47 140.219 1768.17L154.096 1776.81C158.394 1779.51 166.852 1779.67 171.841 1779.86L266.834 1779.68L347.095 1779.49L392.374 1779.45C399.322 1779.44 407.242 1780.2 414.021 1779.08L431.11 1778.67C426.158 1777.27 421.184 1777.84 416.103 1778.08L416.564 45.2658C408.01 43.84 397.872 44.831 389.135 44.8466L329.915 44.6741L212.329 44.3589L181.998 44.4188C175.143 44.439 167.943 44.1236 161.178 45.3836C154.474 46.6323 149.511 49.9168 144.184 54.0036L142.788 55.0518C133.097 62.4624 130.624 72.8684 127.981 84.052ZM1726.69 646.545L1680.04 726.461L1632.39 809.464L1599.84 865.64C1594.63 874.359 1588.36 883.824 1584.15 893.022C1583.53 894.384 1582.84 895.441 1582.03 896.68L1560 934.885L1558.52 937.392C1554.31 944.221 1549.39 951.763 1546.14 959.072L1518.8 1006.38L1516.61 1010L1506.81 1026.85C1505.65 1028.76 1506.37 1027.5 1505.37 1029.63C1504.68 1031.1 1503.92 1032.02 1502.99 1033.31C1499.84 1037.71 1497.45 1043.15 1494.9 1047.96C1493.97 1049.71 1494.4 1048.97 1493.26 1050.47C1491.49 1052.79 1490.34 1055.55 1488.71 1058L1418.24 1180.36L1416.11 1184.34C1413.04 1190.84 1408.13 1196.27 1405.5 1203.09L1405.62 1556.39L1403.68 1714.72C1402.93 1730.19 1404.03 1744.97 1399.56 1759.95L1389.51 1769.65C1383.99 1775.39 1371.67 1778.64 1363.85 1778.72L1147.31 1778.72L697.062 1778.72L504.126 1778.71L452.041 1778.71C445.474 1778.72 437.432 1779.72 431.11 1778.67L414.021 1779.08C407.242 1780.2 399.322 1779.44 392.374 1779.45L347.095 1779.49L266.834 1779.68L171.841 1779.86C166.852 1779.67 158.394 1779.51 154.096 1776.81L140.219 1768.17C139.376 1766.47 138.52 1764.86 137.344 1763.36C132.637 1757.34 130.722 1753.17 129.063 1745.83C127.046 1739.28 127.373 1732.29 127.363 1725.51L127.352 1698.94L127.428 1622.96L126.951 1616.62C121.279 1615.32 114.482 1615.58 108.632 1615.2L85.3307 1612.67C63.2504 1609.78 35.8839 1601.29 18.9025 1586.67C16.002 1584.18 12.6867 1581.55 10.4204 1578.45C6.71431 1573.38 3.44961 1569.03 2.51462 1562.68L2.36792 1561.46L0 1559.78L-0 1792L1760 1792L1760 571.005L1757.57 572.709C1755.46 589.049 1749.79 603.107 1742.18 617.647L1731.49 636.129C1729.64 639.233 1727.07 642.924 1726.69 646.545ZM0 276.577C3.50878 271.531 4.8205 265.347 8.54337 260.367C27.3985 235.144 59.9001 228.236 89.1015 223.689C92.9756 223.085 96.7274 222.055 100.646 221.645C108.849 220.788 117.532 221.906 125.589 220.782L126.922 220.575C127.787 208.225 127.345 195.702 127.34 183.318L127.315 120.456C127.315 108.432 126.563 95.9727 127.981 84.052C130.624 72.8684 133.097 62.4624 142.788 55.0518L144.184 54.0036C149.511 49.9168 154.474 46.6323 161.178 45.3836C167.943 44.1236 175.143 44.439 181.998 44.4188L212.329 44.3589L329.915 44.6741L389.135 44.8466C397.872 44.831 408.01 43.84 416.564 45.2658L462.859 45.3321C465.449 45.2846 467.819 44.4942 470.402 44.4656L544.804 44.4599L1098.22 45.4223L1285.64 45.3716L1342.25 45.3411C1351.2 45.3434 1360.92 44.5797 1369.75 45.6692C1378.53 46.7516 1388.55 52.8402 1394.43 59.3656C1400.93 66.5615 1403.93 74.7376 1405.12 84.1332C1406.84 97.6341 1405.52 112.887 1405.53 126.55L1405.55 215.881L1405.55 547.179L1405.56 648.937C1405.56 668.224 1404.41 688.357 1406.55 707.504C1410.64 703.725 1412.02 698.208 1415.17 693.744C1416.58 691.751 1417.65 689.638 1418.76 687.467C1432.01 693.168 1444.69 701.769 1457.16 709.026C1461.79 711.721 1467.84 714.195 1471.99 717.407L1473.04 717.412L1526.03 747.999L1632.39 809.464L1680.04 726.461L1726.69 646.545C1727.07 642.924 1729.64 639.233 1731.49 636.129L1742.18 617.647C1749.79 603.107 1755.46 589.049 1757.57 572.709L1760 571.005L1760 536.688L1760 0L0 -0L0 276.577Z"/>
	<path fill="#626262" d="M990.188 1526.63C1006.69 1527.79 1023.93 1532.29 1038.62 1540.06C1040.5 1541.05 1041.69 1541.19 1043.77 1541.42L1044.69 1542.33C1048.75 1547.33 1058.83 1549.91 1064.66 1553.36C1080.99 1562.99 1095.61 1574.93 1108.74 1588.58C1112.33 1592.31 1117.05 1596.42 1118.39 1601.47L1056.11 1646.91L1037.18 1660.93C1030.54 1666.13 1023.94 1672.48 1015.68 1675.04C1011.96 1676.19 1007.77 1678.83 1003.85 1677.79L1000.18 1676.99C992.861 1675.05 985.356 1670.59 981.615 1663.79C976.694 1654.85 975.042 1645.26 977.968 1635.3C980.475 1626.78 979.388 1617.83 980.357 1609.08C980.774 1605.32 982.221 1601.9 982.666 1598.19C983.476 1591.45 983.194 1584.55 983.785 1577.78C984.123 1573.92 985.517 1570.45 986.025 1566.69C987.074 1558.91 986.374 1550.87 987.435 1543.06C988.199 1537.44 989.781 1532.43 990.188 1526.63Z"/>
	<path fill="#F7CF9C" d="M1007.58 1399.23L1009.97 1400.09C1016.45 1393.71 1022.77 1388.62 1030.91 1384.45C1039.62 1379.99 1049.47 1379.45 1059.02 1379.62C1062.35 1379.67 1065.84 1379.52 1069.02 1380.6L1084.62 1386.3L1084.43 1386.57C1095.6 1389.55 1105.16 1403.21 1110.7 1412.68C1117.01 1423.48 1114.1 1436.84 1122.99 1445.6C1125.93 1447.16 1128.11 1448.87 1131.62 1447.92L1135.39 1446.2C1145.56 1441.35 1154.4 1441.09 1165.44 1441.23C1168.88 1441.27 1173.08 1440.92 1176.36 1442.06C1188.25 1446.21 1198.7 1451.47 1207.19 1461.05C1210.26 1464.52 1212.51 1468.77 1215.26 1472.51C1216.62 1474.36 1216.73 1475.74 1217.17 1477.92C1217.47 1479.43 1218.09 1480.42 1218.76 1481.79C1223.51 1491.44 1221.04 1508.37 1219.68 1518.75C1218.29 1520.69 1216.95 1521.9 1217.75 1524.55L1218.5 1525.86C1217.34 1527.65 1216.14 1529.54 1214.59 1531.01C1205.41 1539.75 1192.97 1547.04 1182.64 1554.59L1118.39 1601.47C1117.05 1596.42 1112.33 1592.31 1108.74 1588.58C1095.61 1574.93 1080.99 1562.99 1064.66 1553.36C1058.83 1549.91 1048.75 1547.33 1044.69 1542.33L1043.77 1541.42C1041.69 1541.19 1040.5 1541.05 1038.62 1540.06C1023.93 1532.29 1006.69 1527.79 990.188 1526.63C989.79 1518.19 992.08 1511.4 993.084 1503.25C993.8 1497.44 993.265 1491.45 993.803 1485.59C994.289 1480.31 996.002 1475.25 996.61 1470C997.32 1463.86 996.764 1457.62 997.472 1451.44C998.077 1446.15 999.787 1441.1 1000.22 1435.76C1000.72 1429.47 1000.11 1423.17 1001.27 1416.93C1002.53 1410.21 1003.97 1405.09 1007.58 1399.23Z"/>
	<path fill="#F7CF9C" d="M1007.58 1399.23L1009.97 1400.09C1016.45 1393.71 1022.77 1388.62 1030.91 1384.45C1039.62 1379.99 1049.47 1379.45 1059.02 1379.62C1062.35 1379.67 1065.84 1379.52 1069.02 1380.6L1084.62 1386.3L1084.43 1386.57C1082.62 1387.92 1082.65 1388.68 1081.96 1390.7C1080.16 1395.92 1076.13 1401.38 1073.42 1406.25C1068.52 1415.02 1063.79 1424.75 1060.38 1434.2C1056.84 1444.03 1055.72 1455.78 1054.16 1466.06C1053.55 1470.07 1052.5 1473.86 1052.16 1477.95C1051.69 1483.49 1052.03 1489.11 1051.39 1494.63C1050.83 1499.45 1049.34 1504.06 1048.84 1508.88C1048.22 1514.85 1048.61 1520.9 1047.72 1526.84C1046.93 1532.07 1045.24 1537.05 1044.69 1542.33L1043.77 1541.42C1041.69 1541.19 1040.5 1541.05 1038.62 1540.06C1023.93 1532.29 1006.69 1527.79 990.188 1526.63C989.79 1518.19 992.08 1511.4 993.084 1503.25C993.8 1497.44 993.265 1491.45 993.803 1485.59C994.289 1480.31 996.002 1475.25 996.61 1470C997.32 1463.86 996.764 1457.62 997.472 1451.44C998.077 1446.15 999.787 1441.1 1000.22 1435.76C1000.72 1429.47 1000.11 1423.17 1001.27 1416.93C1002.53 1410.21 1003.97 1405.09 1007.58 1399.23Z"/>
	<path fill="#F8A808" d="M1406.55 707.504C1410.64 703.725 1412.02 698.208 1415.17 693.744C1416.58 691.751 1417.65 689.638 1418.76 687.467C1432.01 693.168 1444.69 701.769 1457.16 709.026C1461.79 711.721 1467.84 714.195 1471.99 717.407L1430.32 789.81L1357.72 915.508L1199.15 1190.34L1090.91 1377.83C1089.13 1381.03 1088.11 1385.06 1084.62 1386.3L1069.02 1380.6C1065.84 1379.52 1062.35 1379.67 1059.02 1379.62C1049.47 1379.45 1039.62 1379.99 1030.91 1384.45C1022.77 1388.62 1016.45 1393.71 1009.97 1400.09L1007.58 1399.23L1107.47 1227.1L1276.78 933.859L1362.2 785.9L1389.88 737.958C1395.6 728.039 1402.19 718.101 1406.55 707.504Z"/>
	<path fill="#F8A808" d="M1471.99 717.407L1473.04 717.412L1526.03 747.999L1122.99 1445.6C1114.1 1436.84 1117.01 1423.48 1110.7 1412.68C1105.16 1403.21 1095.6 1389.55 1084.43 1386.57L1084.62 1386.3C1088.11 1385.06 1089.13 1381.03 1090.91 1377.83L1199.15 1190.34L1357.72 915.508L1430.32 789.81L1471.99 717.407Z"/>
	<path fill="#F8A808" d="M1526.03 747.999L1632.39 809.464L1599.84 865.64C1594.63 874.359 1588.36 883.824 1584.15 893.022C1583.53 894.384 1582.84 895.441 1582.03 896.68L1560 934.885L1558.52 937.392C1554.31 944.221 1549.39 951.763 1546.14 959.072L1518.8 1006.38L1516.61 1010L1506.81 1026.85C1505.65 1028.76 1506.37 1027.5 1505.37 1029.63C1504.68 1031.1 1503.92 1032.02 1502.99 1033.31C1499.84 1037.71 1497.45 1043.15 1494.9 1047.96C1493.97 1049.71 1494.4 1048.97 1493.26 1050.47C1491.49 1052.79 1490.34 1055.55 1488.71 1058L1418.24 1180.36L1416.11 1184.34C1413.04 1190.84 1408.13 1196.27 1405.5 1203.09C1399.23 1209.84 1394.7 1220.51 1390.01 1228.6L1356.62 1286.39L1261.5 1451.71L1218.5 1525.86L1217.75 1524.55C1216.95 1521.9 1218.29 1520.69 1219.68 1518.75C1221.04 1508.37 1223.51 1491.44 1218.76 1481.79C1218.09 1480.42 1217.47 1479.43 1217.17 1477.92C1216.73 1475.74 1216.62 1474.36 1215.26 1472.51C1212.51 1468.77 1210.26 1464.52 1207.19 1461.05C1198.7 1451.47 1188.25 1446.21 1176.36 1442.06C1173.08 1440.92 1168.88 1441.27 1165.44 1441.23C1154.4 1441.09 1145.56 1441.35 1135.39 1446.2L1131.62 1447.92C1128.11 1448.87 1125.93 1447.16 1122.99 1445.6L1526.03 747.999Z"/>
	<path fill="#003056" d="M522.488 699.316C702.863 674.792 885.553 668.168 1067.29 678.131L1282.33 698.709C1282.33 708.006 1282.96 718.179 1281.88 727.38C1280.1 742.51 1272.67 757.327 1261.87 768.021C1250.12 779.65 1236.65 784.073 1221.21 788.863L1191.31 797.683C1090.07 825.7 986.738 838.716 881.748 837.313C792.563 836.121 704.421 821.63 618.365 798.871L585.413 789.318C569.031 784.289 554.255 779.756 542.025 767.074C531.495 756.154 525.061 742.579 523.193 727.562L522.995 726.134C521.864 717.418 522.475 708.11 522.488 699.316Z"/>
	<path fill="#004881" d="M523.42 630.141C519.308 625.548 516.05 619.942 512.617 614.822L493.599 586.25C483.152 570.501 470.31 554.369 461.676 537.603C458.212 530.877 456.439 524.31 454.762 517.019C451.003 500.674 456.072 480.984 465.033 467.128C469.542 460.156 475.6 453.978 480.901 447.59L509.669 413.222C518.201 403.423 525.849 392.96 535.091 383.743C552.889 365.992 573.033 350.291 595.16 338.28C613.763 328.183 633.189 321.164 653.023 313.994L721.442 289.171L795.312 262.185C811.731 256.208 828.193 249.236 845.369 245.74C863.936 241.961 881.406 242.164 900.214 242.12C920.765 242.073 939.963 241.957 960.297 245.884C973.368 248.408 986.147 253.399 998.588 258.045L1044.25 274.639L1135.26 307.733C1155.1 315.016 1175.22 321.718 1194.51 330.373C1206.68 335.829 1218.45 342.779 1229.53 350.171C1240.36 357.389 1251.22 365.685 1260.72 374.621C1279.68 392.473 1295.55 413.218 1312.25 433.136C1321.97 444.726 1333.26 456.323 1341.26 469.123C1345.24 475.495 1348.35 483.389 1349.88 490.745L1350.53 494.812L1350.73 495.888C1352.78 507.626 1350.56 520.91 1346.03 531.838C1340.01 546.355 1328.72 560.356 1319.96 573.492L1284.66 626.5C1283.61 628.005 1282.81 628.918 1281.22 629.901C1283.52 633.687 1282.29 643.951 1282.29 648.766L1282.33 698.709L1067.29 678.131C885.553 668.168 702.863 674.792 522.488 699.316L522.545 650.523C522.54 644.533 521.29 635.688 523.42 630.141Z"/>
	<path fill="#FDE74C" d="M900.929 301.991C917.5 303.492 927.414 321.423 939.58 331.406C947.197 337.656 956.847 342.483 966.456 344.703L967.956 345.038C974.426 346.551 980.804 346.562 987.407 346.949C990.869 347.152 994.924 346.828 997.744 349.13L998.588 349.883C1001.74 352.549 1003.75 354.691 1005.15 358.665C1006.67 362.982 1006.09 368.232 1005.86 372.739C1004.71 394.986 999.072 417.646 989.477 437.746C975.104 467.856 954.908 488.696 928.631 508.55C920.851 514.429 913.735 520.724 904.457 524.008C901.279 524.096 898.036 523.352 895.155 521.994C888.977 519.081 882.757 513.242 877.289 509.099C848.081 486.966 824.877 462.863 811.249 428.058C804.112 409.831 799.213 389.505 798.957 369.876C798.905 365.889 798.464 361.169 800.242 357.526L800.765 356.562L801.919 354.493C809.017 343.466 824.892 347.88 836.049 345.265L837.553 344.887C847.895 342.368 857.477 337.976 865.723 331.161C876.851 321.966 886.77 305.779 900.929 301.991Z"/>
	<path fill="#004881" d="M523.42 630.141L682.374 607.688L860.624 596.071C960.929 593.727 1061.74 599.751 1161.31 611.509L1243.2 623.021C1255.7 625.053 1269.08 626.352 1281.22 629.901C1283.52 633.687 1282.29 643.951 1282.29 648.766L1282.33 698.709L1067.29 678.131C885.553 668.168 702.863 674.792 522.488 699.316L522.545 650.523C522.54 644.533 521.29 635.688 523.42 630.141Z"/>
	<path fill="#FA4A47" d="M1514.58 522.324C1516.21 516.746 1520.3 511.955 1523.14 506.908C1533.94 487.771 1545.76 469.222 1563.5 455.669C1567.2 452.84 1571.42 450.79 1575.1 447.986C1578.71 445.239 1582.6 443.411 1586.83 441.792C1590.72 440.298 1594.98 438.79 1598.75 437.062C1600.62 436.204 1602.42 434.815 1604.46 434.349C1606.78 433.817 1609.3 434.321 1611.66 433.937C1613.94 433.564 1616.24 432.469 1618.46 431.812C1623.94 430.195 1630.32 430.657 1635.98 430.635C1642.43 430.609 1649.4 430.196 1655.77 431.239C1658.86 431.745 1661.74 433.109 1664.79 433.663C1667.85 434.218 1670.8 433.459 1673.64 435.063C1677.01 436.963 1683.18 439.737 1686.94 440.565C1690.64 441.381 1693.67 442.97 1696.81 445.103L1709.3 453.119C1702.47 454.301 1695.61 454.231 1688.86 455.33C1663.79 459.415 1638.74 467.905 1618.92 484.312C1609.15 492.401 1599.82 501.031 1592.29 511.329C1587.14 518.374 1582.6 525.956 1578.26 533.517C1574.98 539.227 1570.98 548.498 1565.61 552.329L1514.58 522.324Z"/>
	<path fill="#FA4A47" d="M1709.3 453.119C1728.36 467.133 1741.75 484.831 1750.58 506.625C1752.91 512.378 1755.53 517.93 1756.53 524.125C1757.07 527.51 1756.43 533.601 1758.93 535.717L1760 536.688L1760 571.005L1757.57 572.709C1755.46 589.049 1749.79 603.107 1742.18 617.647L1731.49 636.129C1729.64 639.233 1727.07 642.924 1726.69 646.545C1725.36 644.128 1701.37 631.639 1697.18 629.211L1566.74 553.841L1565.61 552.329C1570.98 548.498 1574.98 539.227 1578.26 533.517C1582.6 525.956 1587.14 518.374 1592.29 511.329C1599.82 501.031 1609.15 492.401 1618.92 484.312C1638.74 467.905 1663.79 459.415 1688.86 455.33C1695.61 454.231 1702.47 454.301 1709.3 453.119Z"/>
	<path fill="#E4E4E4" d="M1514.58 522.324L1565.61 552.329L1566.74 553.841L1697.18 629.211C1701.37 631.639 1725.36 644.128 1726.69 646.545L1680.04 726.461L1632.39 809.464L1526.03 747.999L1473.04 717.412L1471.99 717.407C1467.84 714.195 1461.79 711.721 1457.16 709.026C1444.69 701.769 1432.01 693.168 1418.76 687.467L1466.81 603.591L1486.98 568.863C1489.26 564.945 1491.07 560.421 1493.71 556.775C1501.57 545.9 1506.05 532.848 1514.58 522.324Z"/>
	<path fill="#E4E4E4" d="M1418.76 687.467L1466.81 603.591L1467.4 604.302C1471.71 609.375 1477.24 611.817 1482.94 614.964L1499.97 624.822C1505.46 627.981 1512.29 633.177 1518.47 634.273C1519.22 637.085 1513.02 646.645 1511.33 649.58L1485.48 694.129C1481.24 701.468 1475.46 709.328 1473.04 717.412L1471.99 717.407C1467.84 714.195 1461.79 711.721 1457.16 709.026C1444.69 701.769 1432.01 693.168 1418.76 687.467Z"/>
	<path fill="#E4E4E4" d="M1566.74 553.841L1697.18 629.211C1701.37 631.639 1725.36 644.128 1726.69 646.545L1680.04 726.461C1678.18 724.54 1673.8 723.818 1671.46 721.992C1668.47 719.65 1665.61 719.702 1662.95 716.819L1662.42 716.219C1658.76 715.699 1656.25 713.079 1653.17 711.185C1650.14 709.324 1648.28 709.366 1645.56 706.573C1644.47 705.461 1642.93 705.687 1641.41 705.527C1640.33 704.143 1639.66 703.163 1638.06 702.355C1634.33 700.476 1628.99 696.088 1625.33 695.405C1623.17 695.003 1622.89 693.97 1621.52 692.326C1619.98 692.159 1618 692.127 1616.74 691.097C1612.93 687.972 1608.24 686.373 1604.7 683.234C1602.63 681.398 1602.46 682.457 1600.28 681.547C1597.35 680.322 1598.33 678.516 1594.15 677.968C1592.06 676.01 1589.34 674.152 1586.72 672.994C1584.09 671.83 1582.37 670.68 1580.19 668.763C1578.64 667.402 1577.28 668.371 1575.77 667.576C1574.94 667.139 1573.67 665.399 1572.96 664.663C1568.52 663.947 1566.13 659.98 1562.2 658.438C1559.44 657.356 1558.72 657.434 1556.58 655.235C1555.48 654.106 1553.25 654.085 1551.69 653.781C1549.48 649.905 1544.55 649.316 1541.18 646.528C1539.63 645.25 1538.62 644.221 1536.55 643.918C1533.18 643.423 1532.62 640.756 1528.51 640.343C1526.38 637.876 1524.94 636.796 1521.77 635.906L1520.92 635.688L1520.52 633.938L1549.27 583.726C1554.73 574.176 1560.02 562.486 1566.74 553.841Z"/>
	<path fill="#626262" d="M127.981 84.052C130.624 72.8684 133.097 62.4624 142.788 55.0518L144.184 54.0036C149.511 49.9168 154.474 46.6323 161.178 45.3836C167.943 44.1236 175.143 44.439 181.998 44.4188L212.329 44.3589L329.915 44.6741L389.135 44.8466C397.872 44.831 408.01 43.84 416.564 45.2658L416.103 1778.08C421.184 1777.84 426.158 1777.27 431.11 1778.67L414.021 1779.08C407.242 1780.2 399.322 1779.44 392.374 1779.45L347.095 1779.49L266.834 1779.68L171.841 1779.86C166.852 1779.67 158.394 1779.51 154.096 1776.81L140.219 1768.17C139.376 1766.47 138.52 1764.86 137.344 1763.36C132.637 1757.34 130.722 1753.17 129.063 1745.83C127.046 1739.28 127.373 1732.29 127.363 1725.51L127.352 1698.94L127.428 1622.96L126.951 1616.62C121.279 1615.32 114.482 1615.58 108.632 1615.2L85.3307 1612.67C63.2504 1609.78 35.8839 1601.29 18.9025 1586.67C16.002 1584.18 12.6867 1581.55 10.4204 1578.45C6.71431 1573.38 3.44961 1569.03 2.51462 1562.68L2.36792 1561.46L0 1559.78L-0 1541.98L0 1306.99L0 1289.09L0 1053.16L0 1036.11L0 800.269L0 783.216L0 547.079L0 529.608L0 293.663L0 276.577C3.50878 271.531 4.8205 265.347 8.54337 260.367C27.3985 235.144 59.9001 228.236 89.1015 223.689C92.9756 223.085 96.7274 222.055 100.646 221.645C108.849 220.788 117.532 221.906 125.589 220.782L126.922 220.575C127.787 208.225 127.345 195.702 127.34 183.318L127.315 120.456C127.315 108.432 126.563 95.9727 127.981 84.052ZM0 547.079L0 783.216L0 800.269L0 1036.11C2.74713 1032.31 3.96046 1027.86 6.14442 1023.72C8.21753 1019.78 11.0365 1016.58 14.1167 1013.41C40.2306 986.566 86.5481 981.295 121.845 980.623C123.761 980.442 125.16 980.387 126.937 979.562L127.422 863.404L126.908 856.802C161.317 856.352 196.95 851.366 227.548 834.865C238.617 828.896 248.282 820.277 253.929 808.925C257.546 801.654 259.574 790.752 256.555 782.943C254.048 776.458 249.392 771.076 242.98 768.28C235.918 765.2 229.006 764.928 221.807 767.912C212.819 771.636 209.537 778.954 205.959 787.296C184.037 802.522 152.657 802.889 126.841 803.476L126.881 779.79L127.856 779.209C127.878 779.19 129.398 777.553 129.434 777.438C130.09 775.341 129.594 771.014 129.627 768.676L129.759 742.499L129.289 728L127.796 726.789C126.966 723.435 127.389 719.11 127.388 715.652L127.393 695.019L126.909 602.9C106.537 603.367 86.2313 600.159 66.3747 596.02C47.3077 592.046 19.9656 581.024 8.93852 564.034C6.42298 560.158 3.81428 557.227 3.01901 552.518L2.52058 549.5C1.94346 547.86 1.33377 547.85 0 547.079ZM127.154 1233.56L94.6706 1235.01C88.1473 1235.6 81.9153 1237.97 75.3871 1238.3C70.6844 1238.54 66.4116 1240.36 61.9076 1241.55C43.339 1246.48 24.409 1254.78 11.459 1269.45C8.14273 1273.21 5.94133 1276.31 4.13395 1280.97C2.96167 1283.99 2.08657 1286.57 0 1289.09L0 1306.99L-0 1541.98C1.71224 1539.58 3.11994 1536.57 4.34852 1533.88C9.94308 1521.6 23.1109 1509.55 35.7322 1504.54C40.8154 1502.52 45.4869 1499.67 50.6727 1497.8C74.4001 1489.26 102.725 1487.05 127.773 1486.36C126.983 1482.77 127.337 1478.36 127.338 1474.66L127.351 1453.67L127.003 1362.47L129.031 1362.58C160.867 1362.17 194.228 1358.95 223.049 1344.34C237.635 1336.94 252.091 1324.88 256.84 1308.62C259.001 1301.22 258.561 1292.09 254.912 1285.31C252.082 1280.05 246.432 1274.82 240.551 1273.29C228.876 1270.24 216.527 1273.72 210.194 1284.5C206.825 1290.24 206.527 1293.97 200.127 1297.35L198.954 1297.95C186.681 1304.36 172.01 1306.51 158.409 1308.07C147.604 1309.31 137.491 1310.48 126.578 1310.35C127.342 1302.85 125.753 1293.08 128.053 1286.23L129.334 1285.38L129.68 1255.27C129.668 1247.96 130.119 1240.33 128.769 1233.13L127.154 1233.56ZM126.922 220.575L125.589 220.782C117.532 221.906 108.849 220.788 100.646 221.645C96.7274 222.055 92.9756 223.085 89.1015 223.689C59.9001 228.236 27.3985 235.144 8.54337 260.367C4.8205 265.347 3.50878 271.531 0 276.577L0 293.663L0 529.608C2.40229 526.727 3.12231 523.616 4.69701 520.287C8.26214 512.751 14.4839 505.5 21.337 500.676C40.5239 487.171 61.1829 480.841 84.1878 477.569C88.7671 476.917 93.19 475.53 97.8354 475.285L117.729 474.751C120.371 474.617 123.567 474.803 126.039 473.905L127.073 473.501L127.642 370.506C127.211 369.737 127.487 366.72 127.454 365.594L126.803 350.244C131.139 350.788 136.75 349.758 141.17 349.47C160.658 348.199 179.314 346.35 198.177 340.828C219.836 334.488 243.027 323.619 253.906 302.704C257.593 295.616 259.252 284.893 256.739 277.246C254.552 270.588 249.724 265.191 243.439 262.109C236.458 258.686 230.065 258.26 222.735 261.04C212.825 264.799 209.425 272.604 205.646 281.674C181.133 295.442 154.312 296.853 126.859 296.694C127.462 289.362 125.455 279.38 127.787 272.788L129.41 272.094C130.151 266.952 129.735 261.402 129.721 256.201C129.693 245.416 129.371 234.563 130.031 223.796L129.445 221.828L126.922 220.575ZM121.845 980.623C86.5481 981.295 40.2306 986.566 14.1167 1013.41C11.0365 1016.58 8.21753 1019.78 6.14442 1023.72C3.96046 1027.86 2.74713 1032.31 0 1036.11L0 1053.16L0 1289.09C2.08657 1286.57 2.96167 1283.99 4.13395 1280.97C5.94133 1276.31 8.14273 1273.21 11.459 1269.45C24.409 1254.78 43.339 1246.48 61.9076 1241.55C66.4116 1240.36 70.6844 1238.54 75.3871 1238.3C81.9153 1237.97 88.1473 1235.6 94.6706 1235.01L127.154 1233.56L127.644 1130.09C127.288 1129.33 127.512 1126.22 127.49 1125.22L126.749 1109.56C129.198 1109.97 132.743 1109.36 135.27 1109.23C161.382 1107.83 184.845 1105.29 209.607 1096.33C223.241 1091.39 237.68 1083.82 247.24 1072.56C254.036 1064.56 259.042 1052.76 257.861 1042.11C257.052 1034.84 253.513 1028.62 247.677 1024.16C242.8 1020.44 235.29 1017.83 229.165 1018.93L227.986 1019.16C226.206 1019.5 224.44 1019.81 222.735 1020.45C213.047 1024.08 209.415 1032.14 205.646 1040.94C183.151 1055.06 152.823 1056.94 126.933 1056.25C127.475 1048.81 125.579 1039.06 127.875 1032.27L129.546 1031.62L130.039 983.295L129.311 981.333C126.831 980.442 124.436 980.599 121.845 980.623ZM127.073 473.501L126.039 473.905C123.567 474.803 120.371 474.617 117.729 474.751L97.8354 475.285C93.19 475.53 88.7671 476.917 84.1878 477.569C61.1829 480.841 40.5239 487.171 21.337 500.676C14.4839 505.5 8.26214 512.751 4.69701 520.287C3.12231 523.616 2.40229 526.727 0 529.608L0 547.079C1.33377 547.85 1.94346 547.86 2.52058 549.5L3.01901 552.518C3.81428 557.227 6.42298 560.158 8.93852 564.034C19.9656 581.024 47.3077 592.046 66.3747 596.02C86.2313 600.159 106.537 603.367 126.909 602.9L130.472 602.861L136.917 602.801C171.849 602.4 218.844 595.95 244.212 569.616C252.621 560.886 258.537 550.098 258.036 537.688C257.733 530.184 255.041 523.922 249.384 518.881C243.716 513.831 237.493 512.444 230.093 512.853C221.536 513.325 213.716 518.06 209.734 525.884C208.282 528.737 207.243 532.169 204.949 534.468C200.814 538.612 194.314 540.717 188.852 542.45C169.412 548.616 146.98 551.127 126.613 550.658C127.35 543.173 125.951 533.641 128.073 526.639C128.938 526.353 128.344 526.606 129.592 525.438L129.28 475.454L127.073 473.501ZM127.773 1486.36C102.725 1487.05 74.4001 1489.26 50.6727 1497.8C45.4869 1499.67 40.8154 1502.52 35.7322 1504.54C23.1109 1509.55 9.94308 1521.6 4.34852 1533.88C3.11994 1536.57 1.71224 1539.58 -0 1541.98L0 1559.78L2.36792 1561.46L2.51462 1562.68C3.44961 1569.03 6.71431 1573.38 10.4204 1578.45C12.6867 1581.55 16.002 1584.18 18.9025 1586.67C35.8839 1601.29 63.2504 1609.78 85.3307 1612.67L108.632 1615.2C114.482 1615.58 121.279 1615.32 126.951 1616.62C161.915 1615.11 196.29 1611.18 227.548 1594.41C238.267 1588.66 248.283 1579.68 253.844 1568.73C257.554 1561.42 259.533 1550.39 256.632 1542.55C254.155 1535.85 249.409 1530.85 243.018 1527.84C235.726 1524.39 228.829 1524.34 221.413 1527.47C212.641 1531.18 209.396 1538.81 205.967 1546.97C182.39 1561.88 153.801 1562.13 126.804 1562.94L126.891 1539.18L128.214 1538.37C128.298 1538.29 129.468 1536.71 129.524 1536.5C130.17 1534.1 129.572 1529.52 129.589 1526.93L129.751 1503.03L129.398 1487.5L127.773 1486.36Z"/>
	<path fill="#606870" d="M127.644 1130.09C129.852 1134.59 129.196 1139.6 129.09 1144.5C129.868 1141.6 129.559 1138.31 129.528 1135.31L130.029 1135.31L130.21 1193.27C130.183 1203.98 131.627 1217.39 128.657 1227.63C128.16 1229.34 129.051 1231.04 128.769 1233.13L127.154 1233.56L127.644 1130.09Z"/>
	<path fill="#606870" d="M127.642 370.506C129.855 375.054 129.205 380.058 129.09 385C129.936 381.851 129.558 378.186 129.528 374.938C131.78 380.438 130.243 391.936 130.251 398.262L129.965 468.571L129.099 469.875L129.28 475.454L127.073 473.501L127.642 370.506Z"/>
	<path fill="#606870" d="M127.428 1622.96L128.342 1620.6C129.156 1621.96 129.776 1623.29 130.037 1624.88C130.861 1629.87 130.296 1635.96 130.295 1641.04L130.347 1669.6L130.386 1719.67C130.384 1727.12 131.339 1736.2 129.794 1743.44L129.063 1745.83C127.046 1739.28 127.373 1732.29 127.363 1725.51L127.352 1698.94L127.428 1622.96Z"/>
	<path fill="#606870" d="M127.422 863.404L128.215 860.784C128.821 861.745 129.706 862.579 130.032 863.667C130.626 865.646 130.185 869.792 130.219 871.965L130.283 897.444L130.401 983.174L130.039 983.295L129.311 981.333C126.831 980.442 124.436 980.599 121.845 980.623C123.761 980.442 125.16 980.387 126.937 979.562L127.422 863.404Z"/>
	<path fill="#606870" d="M126.909 602.9L130.472 602.861C129.593 607.078 130.266 611.292 130.301 615.562L130.308 636.663L129.978 721.47C129.938 727.883 131.754 736.507 129.759 742.499L129.289 728L127.796 726.789C126.966 723.435 127.389 719.11 127.388 715.652L127.393 695.019L126.909 602.9Z"/>
	<path fill="#606870" d="M127.003 1362.47L129.031 1362.58C128.975 1364.48 128.848 1365.89 129.6 1367.66C130.824 1370.54 130.263 1375.39 130.277 1378.6L130.29 1406.15L130.457 1502.54L129.751 1503.03L129.398 1487.5L127.773 1486.36C126.983 1482.77 127.337 1478.36 127.338 1474.66L127.351 1453.67L127.003 1362.47Z"/>
	<path fill="#606870" d="M127.981 84.052C128.891 85.9975 129.798 87.9727 130.052 90.125C131.712 104.194 130.417 119.651 130.423 133.904L130.403 223.674L130.031 223.796L129.445 221.828L126.922 220.575C127.787 208.225 127.345 195.702 127.34 183.318L127.315 120.456C127.315 108.432 126.563 95.9727 127.981 84.052Z"/>
	<path fill="#E4E4E4" d="M127.773 1486.36L129.398 1487.5L129.751 1503.03L129.589 1526.93C129.572 1529.52 130.17 1534.1 129.524 1536.5C129.468 1536.71 128.298 1538.29 128.214 1538.37L126.891 1539.18L126.804 1562.94C153.801 1562.13 182.39 1561.88 205.967 1546.97C209.396 1538.81 212.641 1531.18 221.413 1527.47C228.829 1524.34 235.726 1524.39 243.018 1527.84C249.409 1530.85 254.155 1535.85 256.632 1542.55C259.533 1550.39 257.554 1561.42 253.844 1568.73C248.283 1579.68 238.267 1588.66 227.548 1594.41C196.29 1611.18 161.915 1615.11 126.951 1616.62C121.279 1615.32 114.482 1615.58 108.632 1615.2L85.3307 1612.67C63.2504 1609.78 35.8839 1601.29 18.9025 1586.67C16.002 1584.18 12.6867 1581.55 10.4204 1578.45C6.71431 1573.38 3.44961 1569.03 2.51462 1562.68L2.36792 1561.46L0 1559.78L-0 1541.98C1.71224 1539.58 3.11994 1536.57 4.34852 1533.88C9.94308 1521.6 23.1109 1509.55 35.7322 1504.54C40.8154 1502.52 45.4869 1499.67 50.6727 1497.8C74.4001 1489.26 102.725 1487.05 127.773 1486.36ZM126.804 1562.94L126.891 1539.18C114.605 1539.96 101.926 1540.23 89.7876 1542.42C80.4767 1544.11 71.469 1547.16 62.2428 1549.19C62.692 1551.2 63.402 1551.73 64.7638 1553.22C74.824 1556.24 84.5052 1559.32 94.9577 1561.01C105.159 1562.66 116.456 1562.69 126.804 1562.94Z"/>
	<path fill="#E4E4E4" d="M127.073 473.501L129.28 475.454L129.592 525.438C128.344 526.606 128.938 526.353 128.073 526.639C125.951 533.641 127.35 543.173 126.613 550.658C146.98 551.127 169.412 548.616 188.852 542.45C194.314 540.717 200.814 538.612 204.949 534.468C207.243 532.169 208.282 528.737 209.734 525.884C213.716 518.06 221.536 513.325 230.093 512.853C237.493 512.444 243.716 513.831 249.384 518.881C255.041 523.922 257.733 530.184 258.036 537.688C258.537 550.098 252.621 560.886 244.212 569.616C218.844 595.95 171.849 602.4 136.917 602.801L130.472 602.861L126.909 602.9C106.537 603.367 86.2313 600.159 66.3747 596.02C47.3077 592.046 19.9656 581.024 8.93852 564.034C6.42298 560.158 3.81428 557.227 3.01901 552.518L2.52058 549.5C1.94346 547.86 1.33377 547.85 0 547.079L0 529.608C2.40229 526.727 3.12231 523.616 4.69701 520.287C8.26214 512.751 14.4839 505.5 21.337 500.676C40.5239 487.171 61.1829 480.841 84.1878 477.569C88.7671 476.917 93.19 475.53 97.8354 475.285L117.729 474.751C120.371 474.617 123.567 474.803 126.039 473.905L127.073 473.501ZM126.613 550.658C127.35 543.173 125.951 533.641 128.073 526.639C115.958 526.997 103.886 526.933 92.0273 529.672L71.2434 534.302C67.0525 535.416 63.0504 537.498 59.1231 539.315C65.2169 540.615 70.6851 543.071 76.6057 544.487C92.8998 548.384 109.857 550.558 126.613 550.658Z"/>
	<path fill="#E4E4E4" d="M121.845 980.623C124.436 980.599 126.831 980.442 129.311 981.333L130.039 983.295L129.546 1031.62L127.875 1032.27C125.579 1039.06 127.475 1048.81 126.933 1056.25C152.823 1056.94 183.151 1055.06 205.646 1040.94C209.415 1032.14 213.047 1024.08 222.735 1020.45C224.44 1019.81 226.206 1019.5 227.986 1019.16L229.165 1018.93C235.29 1017.83 242.8 1020.44 247.677 1024.16C253.513 1028.62 257.052 1034.84 257.861 1042.11C259.042 1052.76 254.036 1064.56 247.24 1072.56C237.68 1083.82 223.241 1091.39 209.607 1096.33C184.845 1105.29 161.382 1107.83 135.27 1109.23C132.743 1109.36 129.198 1109.97 126.749 1109.56L127.49 1125.22C127.512 1126.22 127.288 1129.33 127.644 1130.09L127.154 1233.56L94.6706 1235.01C88.1473 1235.6 81.9153 1237.97 75.3871 1238.3C70.6844 1238.54 66.4116 1240.36 61.9076 1241.55C43.339 1246.48 24.409 1254.78 11.459 1269.45C8.14273 1273.21 5.94133 1276.31 4.13395 1280.97C2.96167 1283.99 2.08657 1286.57 0 1289.09L0 1053.16L0 1036.11C2.74713 1032.31 3.96046 1027.86 6.14442 1023.72C8.21753 1019.78 11.0365 1016.58 14.1167 1013.41C40.2306 986.566 86.5481 981.295 121.845 980.623ZM0 1053.16L0 1289.09C2.08657 1286.57 2.96167 1283.99 4.13395 1280.97C5.94133 1276.31 8.14273 1273.21 11.459 1269.45C24.409 1254.78 43.339 1246.48 61.9076 1241.55C66.4116 1240.36 70.6844 1238.54 75.3871 1238.3C81.9153 1237.97 88.1473 1235.6 94.6706 1235.01L127.154 1233.56L127.644 1130.09C127.288 1129.33 127.512 1126.22 127.49 1125.22L126.749 1109.56C110.861 1109.45 94.5126 1108.25 78.9451 1105.06C57.5624 1100.68 34.5734 1094.3 17.9384 1079.45C14.5476 1076.43 11.0695 1073.45 8.59081 1069.6C5.52644 1064.84 3.37348 1061.97 2.54013 1056.17L2.35995 1054.83L0 1053.16ZM126.933 1056.25C127.475 1048.81 125.579 1039.06 127.875 1032.27C114.298 1033.66 100.42 1033.88 86.9825 1036.44C82.5432 1037.28 78.3354 1039.01 73.9057 1039.86L58.5554 1044.24C65.1258 1046.87 71.8338 1049.73 78.7144 1051.45C84.4539 1052.89 90.4017 1053.27 96.1741 1054.62C105.443 1056.78 117.413 1056.85 126.933 1056.25Z"/>
	<path fill="#E4E4E4" d="M126.922 220.575L129.445 221.828L130.031 223.796C129.371 234.563 129.693 245.416 129.721 256.201C129.735 261.402 130.151 266.952 129.41 272.094L127.787 272.788C125.455 279.38 127.462 289.362 126.859 296.694C154.312 296.853 181.133 295.442 205.646 281.674C209.425 272.604 212.825 264.799 222.735 261.04C230.065 258.26 236.458 258.686 243.439 262.109C249.724 265.191 254.552 270.588 256.739 277.246C259.252 284.893 257.593 295.616 253.906 302.704C243.027 323.619 219.836 334.488 198.177 340.828C179.314 346.35 160.658 348.199 141.17 349.47C136.75 349.758 131.139 350.788 126.803 350.244L127.454 365.594C127.487 366.72 127.211 369.737 127.642 370.506L127.073 473.501L126.039 473.905C123.567 474.803 120.371 474.617 117.729 474.751L97.8354 475.285C93.19 475.53 88.7671 476.917 84.1878 477.569C61.1829 480.841 40.5239 487.171 21.337 500.676C14.4839 505.5 8.26214 512.751 4.69701 520.287C3.12231 523.616 2.40229 526.727 0 529.608L0 293.663L0 276.577C3.50878 271.531 4.8205 265.347 8.54337 260.367C27.3985 235.144 59.9001 228.236 89.1015 223.689C92.9756 223.085 96.7274 222.055 100.646 221.645C108.849 220.788 117.532 221.906 125.589 220.782L126.922 220.575ZM0 293.663L0 529.608C2.40229 526.727 3.12231 523.616 4.69701 520.287C8.26214 512.751 14.4839 505.5 21.337 500.676C40.5239 487.171 61.1829 480.841 84.1878 477.569C88.7671 476.917 93.19 475.53 97.8354 475.285L117.729 474.751C120.371 474.617 123.567 474.803 126.039 473.905L127.073 473.501L127.642 370.506C127.211 369.737 127.487 366.72 127.454 365.594L126.803 350.244C100.759 349.01 76.09 346.792 51.2653 338.188C42.1072 335.014 31.8778 330.828 24.0192 325.067C14.8837 318.369 4.12391 308.254 2.49658 296.519L2.3567 295.335L0 293.663ZM126.859 296.694C127.462 289.362 125.455 279.38 127.787 272.788C114.489 273.689 100.515 274.43 87.4351 276.989C77.8402 278.865 68.5875 282.284 59.0126 284.22C80.1166 294.678 103.554 297.247 126.859 296.694Z"/>
	<path fill="#E4E4E4" d="M127.154 1233.56L128.769 1233.13C130.119 1240.33 129.668 1247.96 129.68 1255.27L129.334 1285.38L128.053 1286.23C125.753 1293.08 127.342 1302.85 126.578 1310.35C137.491 1310.48 147.604 1309.31 158.409 1308.07C172.01 1306.51 186.681 1304.36 198.954 1297.95L200.127 1297.35C206.527 1293.97 206.825 1290.24 210.194 1284.5C216.527 1273.72 228.876 1270.24 240.551 1273.29C246.432 1274.82 252.082 1280.05 254.912 1285.31C258.561 1292.09 259.001 1301.22 256.84 1308.62C252.091 1324.88 237.635 1336.94 223.049 1344.34C194.228 1358.95 160.867 1362.17 129.031 1362.58L127.003 1362.47L127.351 1453.67L127.338 1474.66C127.337 1478.36 126.983 1482.77 127.773 1486.36C102.725 1487.05 74.4001 1489.26 50.6727 1497.8C45.4869 1499.67 40.8154 1502.52 35.7322 1504.54C23.1109 1509.55 9.94308 1521.6 4.34852 1533.88C3.11994 1536.57 1.71224 1539.58 -0 1541.98L0 1306.99L0 1289.09C2.08657 1286.57 2.96167 1283.99 4.13395 1280.97C5.94133 1276.31 8.14273 1273.21 11.459 1269.45C24.409 1254.78 43.339 1246.48 61.9076 1241.55C66.4116 1240.36 70.6844 1238.54 75.3871 1238.3C81.9153 1237.97 88.1473 1235.6 94.6706 1235.01L127.154 1233.56ZM0 1306.99L-0 1541.98C1.71224 1539.58 3.11994 1536.57 4.34852 1533.88C9.94308 1521.6 23.1109 1509.55 35.7322 1504.54C40.8154 1502.52 45.4869 1499.67 50.6727 1497.8C74.4001 1489.26 102.725 1487.05 127.773 1486.36C126.983 1482.77 127.337 1478.36 127.338 1474.66L127.351 1453.67L127.003 1362.47C105.765 1362.35 85.801 1359.57 65.1211 1355.05C48.4273 1351.39 30.891 1344.26 17.8724 1333.07C15.1507 1330.73 11.9163 1328.24 9.99802 1325.18C6.55554 1319.69 2.90473 1315.59 2.30128 1308.89L2.23237 1307.69L0 1306.99ZM126.578 1310.35C127.342 1302.85 125.753 1293.08 128.053 1286.23C104.352 1286.84 80.712 1288.29 59.1562 1299.09C65.8691 1300.24 71.5356 1302.8 78.0112 1304.33C93.7556 1308.06 110.414 1309.87 126.578 1310.35Z"/>
	<path fill="#E4E4E4" d="M0 547.079C1.33377 547.85 1.94346 547.86 2.52058 549.5L3.01901 552.518C3.81428 557.227 6.42298 560.158 8.93852 564.034C19.9656 581.024 47.3077 592.046 66.3747 596.02C86.2313 600.159 106.537 603.367 126.909 602.9L127.393 695.019L127.388 715.652C127.389 719.11 126.966 723.435 127.796 726.789L129.289 728L129.759 742.499L129.627 768.676C129.594 771.014 130.09 775.341 129.434 777.438C129.398 777.553 127.878 779.19 127.856 779.209L126.881 779.79L126.841 803.476C152.657 802.889 184.037 802.522 205.959 787.296C209.537 778.954 212.819 771.636 221.807 767.912C229.006 764.928 235.918 765.2 242.98 768.28C249.392 771.076 254.048 776.458 256.555 782.943C259.574 790.752 257.546 801.654 253.929 808.925C248.282 820.277 238.617 828.896 227.548 834.865C196.95 851.366 161.317 856.352 126.908 856.802L127.422 863.404L126.937 979.562C125.16 980.387 123.761 980.442 121.845 980.623C86.5481 981.295 40.2306 986.566 14.1167 1013.41C11.0365 1016.58 8.21753 1019.78 6.14442 1023.72C3.96046 1027.86 2.74713 1032.31 0 1036.11L0 800.269L0 783.216L0 547.079ZM0 547.079L0 783.216C0.992475 781.722 1.79313 780.374 2.47383 778.705C5.4416 771.427 8.53127 766.785 13.7111 760.969L14.6791 759.869C21.3783 752.344 31.0869 746.969 40.1265 742.88C68.1845 730.191 97.5856 728.688 127.796 726.789C126.966 723.435 127.389 719.11 127.388 715.652L127.393 695.019L126.909 602.9C106.537 603.367 86.2313 600.159 66.3747 596.02C47.3077 592.046 19.9656 581.024 8.93852 564.034C6.42298 560.158 3.81428 557.227 3.01901 552.518L2.52058 549.5C1.94346 547.86 1.33377 547.85 0 547.079ZM0 800.269L0 1036.11C2.74713 1032.31 3.96046 1027.86 6.14442 1023.72C8.21753 1019.78 11.0365 1016.58 14.1167 1013.41C40.2306 986.566 86.5481 981.295 121.845 980.623C123.761 980.442 125.16 980.387 126.937 979.562L127.422 863.404L126.908 856.802C93.04 855.324 53.4206 851.378 24.625 831.716C14.8519 825.043 4.62868 814.954 2.42378 802.898L2.19821 801.595L0 800.269ZM126.841 803.476L126.881 779.79C105.043 779.96 84.087 783.343 63.2121 789.688L63.451 793.432C67.1624 794.66 70.9113 795.516 74.5471 796.968C78.162 798.412 81.6308 798.498 85.36 799.312C99.0144 802.296 112.841 803.163 126.841 803.476Z"/>
	<path fill="#004881" d="M329.915 44.6741L389.135 44.8466C397.872 44.831 408.01 43.84 416.564 45.2658L416.103 1778.08C421.184 1777.84 426.158 1777.27 431.11 1778.67L414.021 1779.08L329.872 1779.13L329.915 44.6741Z"/>
</svg>
